<mxfile host="app.diagrams.net" modified="2024-01-29T11:21:43.102Z" agent="Mozilla/5.0 (Windows NT 10.0; Win64; x64) AppleWebKit/537.36 (KHTML, like Gecko) Chrome/109.0.0.0 Safari/537.36" etag="suuOoOGI3bljo8ny9o1A" version="23.0.2" type="device">
  <diagram id="C5RBs43oDa-KdzZeNtuy" name="Page-1">
    <mxGraphModel dx="1399" dy="762" grid="1" gridSize="10" guides="1" tooltips="1" connect="1" arrows="1" fold="1" page="1" pageScale="1" pageWidth="827" pageHeight="1169" math="0" shadow="0">
      <root>
        <mxCell id="WIyWlLk6GJQsqaUBKTNV-0" />
        <mxCell id="WIyWlLk6GJQsqaUBKTNV-1" parent="WIyWlLk6GJQsqaUBKTNV-0" />
        <mxCell id="FHaJZM4taWuJrCgxAee4-2" style="edgeStyle=orthogonalEdgeStyle;rounded=0;orthogonalLoop=1;jettySize=auto;html=1;" edge="1" parent="WIyWlLk6GJQsqaUBKTNV-1" source="zkfFHV4jXpPFQw0GAbJ--0" target="FHaJZM4taWuJrCgxAee4-0">
          <mxGeometry relative="1" as="geometry">
            <Array as="points">
              <mxPoint x="368" y="90" />
              <mxPoint x="200" y="90" />
            </Array>
          </mxGeometry>
        </mxCell>
        <mxCell id="zkfFHV4jXpPFQw0GAbJ--0" value="animals" style="swimlane;fontStyle=2;align=center;verticalAlign=top;childLayout=stackLayout;horizontal=1;startSize=26;horizontalStack=0;resizeParent=1;resizeLast=0;collapsible=1;marginBottom=0;rounded=0;shadow=0;strokeWidth=1;" parent="WIyWlLk6GJQsqaUBKTNV-1" vertex="1">
          <mxGeometry x="290" y="40" width="156" height="34" as="geometry">
            <mxRectangle x="230" y="140" width="160" height="26" as="alternateBounds" />
          </mxGeometry>
        </mxCell>
        <mxCell id="zkfFHV4jXpPFQw0GAbJ--4" value="" style="line;html=1;strokeWidth=1;align=left;verticalAlign=middle;spacingTop=-1;spacingLeft=3;spacingRight=3;rotatable=0;labelPosition=right;points=[];portConstraint=eastwest;" parent="zkfFHV4jXpPFQw0GAbJ--0" vertex="1">
          <mxGeometry y="26" width="156" height="8" as="geometry" />
        </mxCell>
        <mxCell id="FHaJZM4taWuJrCgxAee4-13" style="edgeStyle=orthogonalEdgeStyle;rounded=0;orthogonalLoop=1;jettySize=auto;html=1;entryX=0.5;entryY=0;entryDx=0;entryDy=0;" edge="1" parent="WIyWlLk6GJQsqaUBKTNV-1" source="FHaJZM4taWuJrCgxAee4-0" target="FHaJZM4taWuJrCgxAee4-4">
          <mxGeometry relative="1" as="geometry">
            <Array as="points">
              <mxPoint x="200" y="180" />
              <mxPoint x="85" y="180" />
            </Array>
          </mxGeometry>
        </mxCell>
        <mxCell id="FHaJZM4taWuJrCgxAee4-14" style="edgeStyle=orthogonalEdgeStyle;rounded=0;orthogonalLoop=1;jettySize=auto;html=1;entryX=0.5;entryY=0;entryDx=0;entryDy=0;" edge="1" parent="WIyWlLk6GJQsqaUBKTNV-1" source="FHaJZM4taWuJrCgxAee4-0" target="FHaJZM4taWuJrCgxAee4-5">
          <mxGeometry relative="1" as="geometry">
            <Array as="points">
              <mxPoint x="200" y="230" />
            </Array>
          </mxGeometry>
        </mxCell>
        <mxCell id="FHaJZM4taWuJrCgxAee4-15" style="edgeStyle=orthogonalEdgeStyle;rounded=0;orthogonalLoop=1;jettySize=auto;html=1;entryX=0.5;entryY=0;entryDx=0;entryDy=0;" edge="1" parent="WIyWlLk6GJQsqaUBKTNV-1" source="FHaJZM4taWuJrCgxAee4-0" target="FHaJZM4taWuJrCgxAee4-6">
          <mxGeometry relative="1" as="geometry">
            <Array as="points">
              <mxPoint x="200" y="180" />
              <mxPoint x="323" y="180" />
            </Array>
          </mxGeometry>
        </mxCell>
        <mxCell id="FHaJZM4taWuJrCgxAee4-0" value="pets" style="rounded=0;whiteSpace=wrap;html=1;" vertex="1" parent="WIyWlLk6GJQsqaUBKTNV-1">
          <mxGeometry x="140" y="130" width="120" height="40" as="geometry" />
        </mxCell>
        <mxCell id="FHaJZM4taWuJrCgxAee4-16" style="edgeStyle=orthogonalEdgeStyle;rounded=0;orthogonalLoop=1;jettySize=auto;html=1;entryX=0.5;entryY=0;entryDx=0;entryDy=0;" edge="1" parent="WIyWlLk6GJQsqaUBKTNV-1" source="FHaJZM4taWuJrCgxAee4-1" target="FHaJZM4taWuJrCgxAee4-9">
          <mxGeometry relative="1" as="geometry">
            <Array as="points">
              <mxPoint x="575" y="200" />
              <mxPoint x="465" y="200" />
            </Array>
          </mxGeometry>
        </mxCell>
        <mxCell id="FHaJZM4taWuJrCgxAee4-17" style="edgeStyle=orthogonalEdgeStyle;rounded=0;orthogonalLoop=1;jettySize=auto;html=1;entryX=0.5;entryY=0;entryDx=0;entryDy=0;" edge="1" parent="WIyWlLk6GJQsqaUBKTNV-1" source="FHaJZM4taWuJrCgxAee4-1" target="FHaJZM4taWuJrCgxAee4-11">
          <mxGeometry relative="1" as="geometry" />
        </mxCell>
        <mxCell id="FHaJZM4taWuJrCgxAee4-18" style="edgeStyle=orthogonalEdgeStyle;rounded=0;orthogonalLoop=1;jettySize=auto;html=1;entryX=0.5;entryY=0;entryDx=0;entryDy=0;" edge="1" parent="WIyWlLk6GJQsqaUBKTNV-1" source="FHaJZM4taWuJrCgxAee4-1" target="FHaJZM4taWuJrCgxAee4-12">
          <mxGeometry relative="1" as="geometry">
            <Array as="points">
              <mxPoint x="575" y="200" />
              <mxPoint x="690" y="200" />
            </Array>
          </mxGeometry>
        </mxCell>
        <mxCell id="FHaJZM4taWuJrCgxAee4-1" value="Pack&lt;br/&gt;animals" style="rounded=0;whiteSpace=wrap;html=1;" vertex="1" parent="WIyWlLk6GJQsqaUBKTNV-1">
          <mxGeometry x="515" y="130" width="120" height="40" as="geometry" />
        </mxCell>
        <mxCell id="FHaJZM4taWuJrCgxAee4-3" style="edgeStyle=orthogonalEdgeStyle;rounded=0;orthogonalLoop=1;jettySize=auto;html=1;entryX=0.5;entryY=0;entryDx=0;entryDy=0;" edge="1" parent="WIyWlLk6GJQsqaUBKTNV-1" source="zkfFHV4jXpPFQw0GAbJ--4" target="FHaJZM4taWuJrCgxAee4-1">
          <mxGeometry relative="1" as="geometry">
            <Array as="points">
              <mxPoint x="368" y="90" />
              <mxPoint x="575" y="90" />
            </Array>
          </mxGeometry>
        </mxCell>
        <mxCell id="FHaJZM4taWuJrCgxAee4-4" value="cats" style="rounded=0;whiteSpace=wrap;html=1;" vertex="1" parent="WIyWlLk6GJQsqaUBKTNV-1">
          <mxGeometry x="40" y="230" width="90" height="40" as="geometry" />
        </mxCell>
        <mxCell id="FHaJZM4taWuJrCgxAee4-5" value="dogs" style="rounded=0;whiteSpace=wrap;html=1;" vertex="1" parent="WIyWlLk6GJQsqaUBKTNV-1">
          <mxGeometry x="160" y="230" width="90" height="40" as="geometry" />
        </mxCell>
        <mxCell id="FHaJZM4taWuJrCgxAee4-6" value="hamsters" style="rounded=0;whiteSpace=wrap;html=1;" vertex="1" parent="WIyWlLk6GJQsqaUBKTNV-1">
          <mxGeometry x="280" y="230" width="86" height="40" as="geometry" />
        </mxCell>
        <mxCell id="FHaJZM4taWuJrCgxAee4-9" value="donkeys" style="rounded=0;whiteSpace=wrap;html=1;" vertex="1" parent="WIyWlLk6GJQsqaUBKTNV-1">
          <mxGeometry x="420" y="230" width="90" height="40" as="geometry" />
        </mxCell>
        <mxCell id="FHaJZM4taWuJrCgxAee4-11" value="horses" style="rounded=0;whiteSpace=wrap;html=1;" vertex="1" parent="WIyWlLk6GJQsqaUBKTNV-1">
          <mxGeometry x="530" y="230" width="90" height="40" as="geometry" />
        </mxCell>
        <mxCell id="FHaJZM4taWuJrCgxAee4-12" value="camels" style="rounded=0;whiteSpace=wrap;html=1;" vertex="1" parent="WIyWlLk6GJQsqaUBKTNV-1">
          <mxGeometry x="640" y="230" width="100" height="40" as="geometry" />
        </mxCell>
      </root>
    </mxGraphModel>
  </diagram>
</mxfile>
